<?xml version="1.0" encoding="utf-8"?>
<!-- Generator: Adobe Illustrator 17.0.0, SVG Export Plug-In . SVG Version: 6.00 Build 0)  -->
<!DOCTYPE svg PUBLIC "-//W3C//DTD SVG 1.1//EN" "http://www.w3.org/Graphics/SVG/1.1/DTD/svg11.dtd">
<svg version="1.1" id="Layer_1" xmlns="http://www.w3.org/2000/svg" xmlns:xlink="http://www.w3.org/1999/xlink" x="0px" y="0px"
	 width="433.728px" height="211.489px" viewBox="0 0 433.728 211.489" enable-background="new 0 0 433.728 211.489"
	 xml:space="preserve">
<g id="_x32_fhSvw_1_">
	<g>
		<path fill="#FFFFFF" d="M1,32c3.42-10.896,11.352-17.323,21.56-21.204c15.363-5.84,27.659,2.559,28.303,19.444
			c0.272,7.136-0.306,14.305-0.536,21.457c-0.085,2.636-0.279,5.269-0.464,8.638c8.644-2.344,16.79-4.373,24.774-6.913
			c1.185-0.377,2.05-3.096,2.305-4.841c1.802-12.338,3.078-24.765,5.293-37.024c0.595-3.29,3.192-7.308,6.037-8.875
			c5.834-3.215,10.486,2.286,9.329,10.454c-1.469,10.374-2.926,20.75-4.335,31.132c-0.175,1.288-0.024,2.62-0.024,4.16
			c3.949-0.941,7.749-1.945,11.594-2.73c2.792-0.57,5.492,0.35,5.541,3.358c0.027,1.679-2.128,3.421-3.385,5.069
			c-0.259,0.34-0.893,0.408-1.364,0.572c-15.081,5.232-15.135,5.234-14.476,21.191c0.151,3.644,0.481,7.348,1.321,10.883
			c1.651,6.941,7.088,8.887,12.251,4.007c4.427-4.185,7.89-9.378,11.92-14.004c0.769-0.882,2.192-1.195,3.559-1.896
			c-8.645-28.307,12.949-49.14,43.08-36.867c0.628-1.655,1.193-3.333,1.894-4.951c1.574-3.633,4.11-5.776,8.307-6.142
			c4.27-0.373,6.203,1.213,6.39,5.46c0.329,7.484,0.781,14.963,1.277,22.437c0.152,2.284,0.616,4.547,1.551,6.8
			c1.452-8.492,2.727-17.02,4.42-25.464c1.078-5.374,2.391-10.847,8.215-13.457c5.943-2.663,8.927-1.145,9.327,5.181
			c0.608,9.626,0.927,19.271,2.196,29.062c1.707-8.23,3.413-16.46,5.123-24.689c0.574-2.76,0.589-5.834,1.893-8.193
			c1.466-2.652,3.687-5.703,6.308-6.742c6.904-2.735,10.791,0.625,9.613,7.984c-0.916,5.723-2.183,11.451-3.986,16.949
			c-1.122,3.423-0.047,5.41,2.312,7.313c2.587,2.086,5.441,3.618,8.638,1.48c3.565-2.385,6.934-5.064,10.361-7.596
			c4.847,10.014,3.91,14.375-4.213,19.061c-9.552,5.51-17.689,3.752-23.672-5.27c-1.139,3.593-2.116,7.102-3.38,10.504
			c-0.803,2.163-1.686,4.47-3.161,6.166c-1.756,2.018-4.186,3.45-6.324,5.136c-1.461-2.036-3.517-3.874-4.27-6.145
			c-2.169-6.542-3.811-13.258-6.605-19.943c-0.509,3.272-0.634,6.664-1.61,9.791c-1.814,5.814-3.327,11.956-6.423,17.08
			c-4.135,6.844-10.445,6.343-13.517-1.023c-3.04-7.288-4.979-15.086-6.855-22.793c-1.805-7.416-3.469-9.314-12.273-10.848
			c4.606,7.477,6.785,15.266,6.19,23.803c-0.759,10.871-6.994,20.267-15.562,22.994c-7.744,2.465-12.773,0.859-20.542-6.63
			c-3.599,4.043-6.905,8.403-10.879,12.031c-3.64,3.323-7.696,6.487-12.104,8.614c-12.8,6.177-25.032-1.561-25.819-16.265
			c-0.432-8.068-0.077-16.177-0.077-24.83c-8.909,2.844-17.154,5.31-25.239,8.223c-1.302,0.469-2.464,2.839-2.711,4.478
			c-1.487,9.86-2.566,19.782-4.06,29.642c-0.441,2.91-1.486,5.827-2.782,8.483c-1.708,3.502-4.397,5.848-8.795,4.823
			c-4.387-1.022-5.258-4.211-4.859-8.014c0.919-8.76,1.981-17.506,2.951-26.261c0.251-2.264,0.376-4.542,0.59-7.209
			c-3.089,0-5.717,0.123-8.33-0.025c-6.007-0.34-11.55-4.474-13.182-9.849c-0.295-0.972-0.383-2.551,0.17-3.085
			c0.582-0.562,2.333-0.654,3.087-0.179c6.688,4.212,12.774-0.739,19.131-1.176c0.631-0.043,1.617-1.374,1.684-2.171
			c0.873-10.373,2.531-20.797,2.093-31.127c-0.363-8.549-6.536-11.116-13.744-6.225c-5.427,3.683-9.868,8.817-14.767,13.283
			c-0.966,0.881-2.021,1.665-3.575,2.935C2.686,39.027,1.843,37.013,1,35C1,34,1,33,1,32z M150.131,64.608
			c-1.331-4.531-2.289-9.782-4.428-14.496c-2.048-4.511-6.65-4.707-9.694-1.137c-5.28,6.193-5.455,22.907-0.306,29.218
			c3.649,4.472,9.335,4.012,11.461-1.296C148.609,73.288,149.048,69.276,150.131,64.608z"/>
		<path fill="#FFFFFF" d="M403.782,106.826c-10.607,10.539-13.68,11.367-25.369,6.318c-10.897,14.261-13.874,15.223-24.151,8.078
			c-3.37,3.836-6.41,7.968-10.133,11.35c-3.947,3.586-9.006,4.482-13.976,2.24c-2.722-1.227-4.229-0.544-5.928,1.455
			c-1.395,1.641-3.012,3.118-4.658,4.518c-7.72,6.567-10.496,6.745-19.627,0.99c-5.814,11.966-16.731,15.587-29.447,16.434
			c1.483,5.29,2.975,9.836,4.012,14.483c1.971,8.829,2.995,17.769,0.485,26.652c-0.793,2.808-2.1,5.683-3.896,7.954
			c-4.343,5.494-11.383,5.594-15.948,0.264c-4.998-5.836-8.162-12.687-8.023-20.459c0.137-7.628,0.2-15.427,1.82-22.817
			c2.181-9.946,0.459-19.33-1.217-28.959c-0.789-4.537-0.92-9.319-0.497-13.912c1.118-12.136,9.864-19.756,20.869-18.712
			c8.733,0.828,15.919,11.199,15.321,22.028c-0.506,9.161-5.265,16.261-12.072,23.894c9.292-3.026,15.576-7.834,20.38-14.604
			c0.523-0.737,0.236-2.543-0.316-3.474c-7.321-12.356-9.273-26.227-11.225-40.041c-1.852-13.111-2.061-26.291,1.98-39.078
			c1.37-4.335,3.461-8.765,6.329-12.237c5.849-7.078,13.698-5.728,17.248,2.729c4.288,10.215,4.913,21.07,3.797,31.903
			c-1.379,13.391-3.459,26.709-5.159,40.069c-0.688,5.403-0.261,10.617,3.207,15.201c1.772,2.343,3.585,2.701,5.815,0.663
			c3.889-3.554,6.447-7.021,5.438-13.213c-1.919-11.768-0.081-23.348,7.093-33.276c3.832-5.304,8.014-11.223,16.371-7.039
			c1.028,0.515,2.9-0.295,4.242-0.835c4.06-1.633,6.53-0.201,7.394,3.86c1.452,6.819,2.606,13.701,4.037,20.524
			c0.644,3.071,1.46,6.137,2.552,9.073c1.07,2.875,3.17,3.452,5.326,1.068c3.756-4.153,6.232-8.476,5.035-14.755
			c-1.603-8.411-2.273-17.033-2.777-25.598c-0.137-2.329,1.197-5.364,2.892-7.006c1.642-1.59,4.837-2.765,6.93-2.286
			c1.394,0.319,2.53,3.767,2.953,5.974c1.906,9.942,3.501,19.944,5.259,29.915c0.17,0.965,0.448,2.114,1.095,2.753
			c1.553,1.532,3.689,4.182,4.977,3.867c1.86-0.454,4.443-3.088,4.502-4.866c0.219-6.587-0.282-13.221-0.881-19.804
			c-0.451-4.958-1.965-9.856-2.049-14.797c-0.055-3.213,0.985-6.856,2.717-9.545c1.196-1.857,4.452-3.298,6.712-3.2
			c1.247,0.054,2.958,3.542,3.4,5.699c2.929,14.309,5.571,28.676,8.508,44.083c6.954-8.027,8.781-17.316,11.735-26.219
			c8.234,8.529,8.702,11.165,3.3,20.986c-2.32,4.218-4.742,8.463-7.734,12.203c-2.969,3.712-2.882,7.329-2.056,11.643
			c1.802,9.411,4.099,18.886,4.373,28.388c0.315,10.904-7.89,18.455-18.053,18.744c-7.512,0.213-13.37-3.929-13.501-11.503
			c-0.135-7.837,1.138-15.83,2.846-23.522c1.241-5.59,4.362-10.74,6.304-16.207C403.244,112.334,403.329,109.515,403.782,106.826z
			 M342,85.638c-0.655-0.169-1.309-0.338-1.964-0.507c-1.489,1.706-3.423,3.193-4.39,5.156c-4.383,8.893-5.249,18.192-1.521,27.477
			c0.847,2.109,3.48,3.502,5.291,5.224c1.576-2.088,4.534-4.204,4.493-6.26C343.703,106.355,342.714,95.999,342,85.638z
			 M294.273,49.847c-5.489,6.656-4.332,38.725,1.494,49.986C299.549,82.561,298.924,58.669,294.273,49.847z M262.407,144.717
			c0.708,0.003,1.416,0.006,2.125,0.009c6.001-7.431,8.612-15.886,6.219-25.351c-0.526-2.081-3.527-5.216-4.944-4.997
			c-2.132,0.33-3.981,3.092-5.717,5.029c-0.563,0.628-0.633,1.942-0.52,2.893C260.46,129.779,261.448,137.246,262.407,144.717z
			 M410.475,126.418c-0.685-0.028-1.37-0.055-2.055-0.083c-3.781,7.714-4.694,16.002-4.349,24.47
			c0.057,1.389,1.288,2.731,1.976,4.094c1.535-0.795,3.367-1.3,4.51-2.475c0.921-0.948,1.457-2.728,1.39-4.1
			C411.591,141.016,410.991,133.719,410.475,126.418z M258.297,167.43c-0.397,0.048-0.794,0.096-1.192,0.144
			c0,2.628-0.218,5.278,0.045,7.88c0.566,5.603,0.999,11.272,2.303,16.719c0.443,1.849,3.338,3.111,5.112,4.641
			c0.436-1.952,1.65-4.124,1.174-5.82C263.513,183.068,260.822,175.273,258.297,167.43z"/>
		<path fill="#FFFFFF" d="M141.794,143.489c4.972-1.662,9.233-2.927,13.368-4.521c3.115-1.201,5.08-0.575,6.178,2.646
			c1.105,3.241,0.299,5.434-3.082,6.654c-4.837,1.746-9.611,3.67-14.418,5.5c-4.825,1.837-8.825,8.898-7.343,13.768
			c1.882,6.184,3.883,12.37,6.412,18.308c3.044,7.148,8.471,8.347,14.24,3.194c3.193-2.852,5.967-6.285,8.391-9.826
			c0.821-1.199,0.394-3.667-0.16-5.323c-3.523-10.537-4.579-20.846,2.567-30.39c8.501-11.355,25.729-14.26,40.346-6.928
			c2.224,1.116,4.365,2.403,6.521,3.65c5.373,3.107,5.368,3.116,5.838,10.134c-7.893-3.037-15.831-6.091-23.769-9.145
			c-0.252,0.369-0.503,0.738-0.755,1.107c6.748,7.952,10.417,16.934,9.841,27.421c-0.71,12.914-9.404,22.785-20.322,22.069
			c-4.095-0.269-8.065-2.435-10.223-2.849c-5.108,4.234-10.179,8.513-15.333,12.69c-7.226,5.856-14.094,6.077-20.262-1.014
			c-5.141-5.911-9.105-12.995-12.768-19.99c-2.665-5.088-4.351-10.787-5.771-16.392c-0.809-3.195-2.263-3.647-4.886-3.089
			c-2.762,0.588-5.513,1.611-8.28,1.654c-1.63,0.025-3.283-1.487-4.926-2.307c0.892-1.533,1.422-3.653,2.753-4.472
			c2.502-1.541,5.388-2.644,8.257-3.357c3.968-0.987,3.755-3.437,3.67-6.732c-0.243-9.431-0.571-18.93,0.285-28.297
			c0.749-8.204,4.686-12.39,9.645-12.869c5.253-0.508,10.02,3.147,13.378,10.187c3.569,7.483,2.397,15.259,1.475,23.02
			C142.473,139.578,142.166,141.154,141.794,143.489z M175.153,160.037c1.862,5.034,3.361,11.046,6.235,16.305
			c2.854,5.222,9.3,4.986,11.619,0.287c3.456-7.003,0.066-23.885-5.821-28.99c-3.346-2.902-7.147-2.364-8.992,1.733
			C176.859,152.338,176.355,155.676,175.153,160.037z M128.227,146.802c0.588,0.115,1.177,0.229,1.765,0.344
			c0.64-0.42,1.803-0.796,1.843-1.267c0.69-8.21,1.372-16.427,1.671-24.657c0.04-1.105-1.998-2.286-3.073-3.431
			c-1.053,1.291-3.016,2.586-3.012,3.873C127.452,130.044,127.909,138.423,128.227,146.802z"/>
	</g>
</g>
</svg>
