<?xml version="1.0" encoding="utf-8"?>
<!-- Generator: Adobe Illustrator 17.0.0, SVG Export Plug-In . SVG Version: 6.00 Build 0)  -->
<!DOCTYPE svg PUBLIC "-//W3C//DTD SVG 1.1//EN" "http://www.w3.org/Graphics/SVG/1.1/DTD/svg11.dtd">
<svg version="1.1" id="Layer_1" xmlns="http://www.w3.org/2000/svg" xmlns:xlink="http://www.w3.org/1999/xlink" x="0px" y="0px"
	 width="544px" height="257.059px" viewBox="0 0 544 257.059" enable-background="new 0 0 544 257.059" xml:space="preserve">
<g>
	<path fill="#FFFFFF" d="M265,0c10.212,6.446,13.25,15.987,9.483,30.115c-0.932,3.494-2.128,6.918-3.358,10.871
		c4.908-0.818,9.521-1.322,13.988-2.419c3.177-0.78,4.855,0.135,5.511,3.128c0.704,3.214-0.163,5.572-3.791,6.291
		c-4.888,0.968-9.755,2.038-14.637,3.039c-6.468,1.326-11.024,7.453-10.077,14c0.809,5.589,1.747,11.178,3.03,16.674
		c1.912,8.185,7.786,10.712,14.437,5.653c6.142-4.672,11.483-10.396,17.252-15.726c-0.322-0.296,0.013-0.14,0.065,0.082
		c3.075,13.1,3.102,13.136-7.209,21.925c-2.908,2.479-5.905,4.907-9.106,6.98c-7.503,4.859-14.71,3.636-20.217-3.421
		c-2.131-2.731-3.796-5.826-5.858-9.044c-2.755,4.239-5.224,8.632-8.263,12.587c-5.783,7.526-12.757,13.556-23.075,12.218
		c-4.431-0.575-8.659-2.709-13.992-4.469c-0.904,0.804-2.778,2.629-4.811,4.257c-9.994,8.004-20.442,13.335-33.228,5.78
		c-0.815-0.482-2.727,0.293-3.814,0.981c-3.925,2.484-7.542,5.498-11.596,7.727c-7.189,3.952-10.528,3.168-16.132-2.956
		c-0.77-0.841-1.517-1.704-3.224-3.624c-1.685,2.173-2.929,4.438-4.768,6.003c-3.271,2.784-6.687,5.533-10.427,7.602
		c-7.696,4.258-15.864,5.567-23.64,0.413c-8.183-5.424-11.518-13.877-11.167-23.256c0.238-6.359,1.807-12.822,3.779-18.915
		c1.795-5.546,6.123-9.462,11.804-11.407c5.93-2.031,11.638-1.537,16.318,2.897c4.781,4.529,4.865,10.263,3.137,16.206
		c-2.728,9.38-9.346,15.477-17.554,20.435c2.357,4.208,6.234,4.65,9.407,2.731c5.896-3.566,11.351-7.91,16.7-12.284
		c0.876-0.716,0.623-3.309,0.302-4.917c-4.804-24.062-5.22-47.95,3.787-71.175c1.975-5.092,5.287-10.172,9.272-13.868
		c7.086-6.573,14.464-3.853,16.671,5.563c2.974,12.689,0.777,25.134-2.613,37.381c-3.055,11.039-6.602,21.94-9.801,32.94
		c-1.452,4.993-2.345,10.037,0.286,15.04c1.672,3.18,3.74,4.09,6.735,1.75c1.704-1.332,3.327-2.773,5.08-4.034
		c2.502-1.8,2.697-3.91,2.102-6.89c-1.873-9.378-0.76-18.614,3.391-27.216c2.78-5.761,7.408-9.612,14.017-10.912
		c11.476-2.259,20.222,6.701,17.347,18.017c-2.056,8.094-6.715,14.384-13.506,19.152c-1.48,1.039-2.987,2.041-4.727,3.227
		c2.677,3.635,6.288,4.49,9.621,2.601c5.145-2.915,9.883-6.586,14.584-10.208c0.781-0.602,0.768-2.605,0.665-3.925
		c-0.67-8.553-0.398-16.999,2.948-25.041c4.374-10.513,14.913-15.769,24.606-12.431c8.647,2.978,11.825,15.307,5.357,21.824
		c-1.375,1.385-4.359,2.182-6.226,1.723c-1.291-0.318-2.304-3.167-2.781-5.052c-0.659-2.602-0.697-5.361-1.001-8.053
		c-0.66-0.281-1.32-0.563-1.98-0.844c-1.802,2.22-4.364,4.171-5.264,6.711c-2.633,7.432-2.368,15.08,0.599,22.427
		c2.777,6.878,9.574,9.109,14.812,3.968c6.199-6.085,11.185-13.408,16.655-20.228c0.252-0.314,0.209-0.972,0.119-1.434
		c-1.45-7.462-2.929-14.917-4.48-22.773c-3.71,0.192-7.382,0.784-10.949,0.399c-1.851-0.199-3.515-2.127-5.263-3.274
		c1.281-1.253,2.353-3.119,3.883-3.64c4.03-1.372,8.258-2.16,11.575-2.976c1.512-10.293,2.534-20.044,4.493-29.602
		C251.59,8.94,254.408,2.977,261,0C262.333,0,263.667,0,265,0z M140.618,81.343c7.069-15.634,10.316-40.879,6.04-48.788
		C138.014,47.888,140.179,64.724,140.618,81.343z M100.627,111.184c5.813-2.013,9.456-6.337,11.027-11.914
		c0.612-2.173-1.253-5.044-1.99-7.598c-2.205,0.701-4.89,0.836-6.518,2.217C99.482,96.995,98.382,106.3,100.627,111.184z
		 M173.393,94.754c0.577,0.248,1.155,0.495,1.732,0.743c5.3-1.695,8.476-5.723,10.77-10.581c1.795-3.801,0.835-8.322-2.024-9.004
		c-3.8-0.906-6.716,1.259-7.732,4.581C174.732,85.097,174.264,89.987,173.393,94.754z M257.046,43.483
		c2.38-0.811,3.425-0.904,3.505-1.232c2.007-8.26,4.03-16.521,5.682-24.855c0.195-0.986-1.739-2.394-2.686-3.606
		c-1.165,1.214-3.157,2.305-3.359,3.663C258.957,25.731,258.132,34.071,257.046,43.483z"/>
	<path fill="#FFFFFF" d="M544,92c-3.764,2.959-7.236,6.433-11.355,8.763c-7.226,4.086-14.021,1.91-18.284-5.325
		c-1.632-2.771-2.81-5.81-4.833-10.07c-1.669,12.066-2.924,22.706-4.765,33.243c-0.41,2.345-2.478,5.363-4.527,6.162
		c-1.71,0.667-4.684-1.18-6.756-2.465c-1.085-0.673-1.434-2.534-1.81-3.265c-6.836,4.048-13.356,8.902-20.633,11.951
		c-7.917,3.317-15.705,1.356-22.106-5.407c-6.513,6.898-13.31,13.101-22.56,15.203c-10,2.272-18.027-1.061-23.485-9.615
		c-9.069,6.483-17.913,12.846-26.803,19.144c-6.381,4.52-21.686,4.622-28.186,0.107c-0.921-0.64-1.668-2.06-1.816-3.206
		c-3.152-24.445-6.14-48.959-4.812-73.631c0.435-8.09,3.331-16.166,5.906-23.983c1.818-5.517,6.78-7.519,12.462-7.119
		c5.532,0.389,8.433,3.974,10.371,8.796c4.215,10.489,3.018,20.913-0.444,31.21c-2.151,6.397-4.875,12.602-7.199,19.192
		c3.088-4.445,7.014-6.951,12.443-5.326c5.936,1.778,9.44,6.123,11.105,11.847c1.013,3.483,1.699,7.143,1.897,10.758
		c0.195,3.561-0.412,7.166-0.758,12.027c5.822-5.912,12.62-9.375,12.07-18.557c-0.42-7.012,1.272-13.885,5.331-19.915
		c3.026-4.494,7.138-7.5,12.476-8.417c12.368-2.125,20.31,6.791,17.115,18.955c-2.592,9.87-9.48,16.132-17.881,21.341
		c2.404,3.442,5.638,4.908,9.035,2.833c5.748-3.511,11.16-7.597,16.517-11.697c0.775-0.593,0.483-2.606,0.649-3.966
		c0.957-7.855,0.987-15.97,3.115-23.492c2.081-7.357,7.763-12.279,15.985-13.192c11.482-1.275,18.914,7.126,16.137,18.351
		c-2.058,8.317-7.07,14.554-14.006,19.365c-1.347,0.935-2.746,1.796-4.235,2.765c2.596,3.403,5.577,4.208,9.361,2.842
		c8.158-2.944,14.077-8.754,19.323-15.274c1.035-1.287,0.773-3.758,0.804-5.688c0.124-7.65,0.07-15.303,0.204-22.953
		c0.052-2.989,0.869-5.559,4.419-6.309c3.099-0.655,5.185-0.267,5.673,3.446c0.518,3.943,1.363,7.842,2.807,11.989
		c0.659-2.174,1.085-4.456,2.027-6.5c1.712-3.714,3.159-7.811,5.834-10.721c1.613-1.754,5.573-2.529,8.022-1.917
		c1.606,0.402,3.019,3.963,3.412,6.295c0.686,4.068,0.189,8.328,0.788,12.42c0.869,5.934,4.509,7.595,9.585,4.331
		c3.454-2.221,6.458-5.142,9.995-8.02C542.413,82.88,543.206,86.44,544,90C544,90.667,544,91.333,544,92z M357.009,142.394
		c13.24,1.577,17.606-3.433,18.049-12.079c0.211-4.113,0.514-8.374-0.326-12.335c-0.575-2.714-2.703-6.682-4.76-7.112
		c-2.808-0.588-6.619,1.068-9.219,2.881c-1.9,1.326-3.43,4.4-3.578,6.792C356.719,127.861,357.009,135.228,357.009,142.394z
		 M350.977,98.744c0.761,0.061,1.522,0.122,2.283,0.182c2.105-7.622,4.627-15.161,6.175-22.894
		c1.091-5.455,1.133-11.178,1.058-16.773c-0.024-1.756-1.951-3.486-3.007-5.227c-1.183,1.588-3.252,3.093-3.409,4.777
		C352.838,72.101,351.964,85.428,350.977,98.744z M455.549,106.13c6.357-2.324,10.088-6.368,11.614-11.787
		c0.66-2.344-0.985-5.338-1.583-8.036c-2.54,1.035-6.105,1.358-7.418,3.246C454.899,94.245,454.48,99.882,455.549,106.13z
		 M411.145,115.654c6.871-2.491,10.167-6.173,12.393-10.971c1.853-3.995,1.002-8.802-1.957-9.451
		c-4.101-0.899-6.898,1.702-7.895,5.197C412.398,104.939,412.079,109.726,411.145,115.654z"/>
	<path fill="#FFFFFF" d="M0,132c2.238-2.968,3.999-6.55,6.832-8.755c3.812-2.967,6.98-1.109,7.562,3.693
		c0.08,0.659,0.026,1.334,0.089,1.997c1.394,14.706,6.532,19.18,21.378,18.067c8.353-0.626,15.869-3.722,21.936-9.621
		c8.75-8.508,7.574-19.125-3.365-24.441c-7.239-3.518-15.341-5.231-22.987-7.948c-6.235-2.215-12.767-4.014-18.462-7.242
		C0.524,90.689-1.875,76.158,6.885,64.787C17.071,51.565,39.72,45.482,55.34,51.774c14.336,5.775,19.219,20.468,11.155,33.703
		c-0.768,1.26-1.649,2.802-2.868,3.361c-2.241,1.027-4.86,2.061-7.139,1.752c-0.872-0.118-1.602-3.892-1.732-6.041
		c-0.105-1.732,0.726-3.545,1.252-5.288c3.189-10.578-0.322-16.173-11.396-16.846c-7.35-0.447-14.578,0.918-20.949,5.143
		c-9.729,6.453-9.559,16.316,0.993,21.382c6.658,3.196,14.113,4.721,21.184,7.075c5.815,1.936,11.891,3.39,17.329,6.103
		c17.269,8.614,20.691,29.04,7.18,42.975c-11.23,11.582-25.522,15.855-41.328,15.197C14.72,159.695,4.313,153.402,0,139
		C0,136.667,0,134.333,0,132z"/>
	<path fill="#FFFFFF" d="M135.265,198.142c-4.592,2.539-8.217,5.627-12.336,6.586c-7.537,1.754-14.985-3.406-16.612-11.601
		c-2.467-12.423-3.937-25.063-0.205-37.534c0.742-2.48,2.661-5.033,4.762-6.543c1.589-1.142,4.671-1.442,6.447-0.66
		c1.209,0.532,1.76,3.566,1.828,5.508c0.35,9.972,0.445,19.954,0.644,29.932c0.013,0.664-0.08,1.475,0.252,1.962
		c1.654,2.428,3.433,4.771,5.168,7.145c1.895-2.098,4.742-3.912,5.47-6.357c1.207-4.053,1.283-8.505,1.415-12.802
		c0.204-6.659,0.021-13.33,0.066-19.995c0.035-5.174,2.458-8.88,7.191-10.968c4.512-1.991,6.505-0.794,6.735,4.17
		c0.699,15.124,1.307,30.251,1.953,45.428c6.818-3.29,12.554-14.502,11.15-21.629c-3.655-18.553,3.851-32.09,20.13-36.056
		c9.231-2.249,17.795-0.168,25.845,4.537c1.4,0.818,2.73,1.755,4.306,2.775c0.606-3.57,0.561-7.033,1.869-9.872
		c1.122-2.433,3.45-5.019,5.863-5.976c3.331-1.321,6.359-0.601,6.353,4.545c-0.012,9.816,0.526,19.633,0.885,29.448
		c0.125,3.422-0.475,7.463,3.923,8.695c2.875,0.806,6.605-4.208,6.676-9.179c0.152-10.661,0.131-21.329-0.084-31.989
		c-0.075-3.718,1.718-5.559,4.85-6.546c4.956-1.563,7.869-0.162,8.405,5.018c0.923,8.914,0.912,17.922,1.741,26.849
		c0.337,3.628,1.849,7.146,2.827,10.714c3.09-1.736,6.351-3.23,9.233-5.262c4.669-3.291,6.229-7.466,5.495-13.645
		c-0.952-8.014,0.138-16.263,0.243-24.413c0.054-4.23,2.544-6.02,6.267-6.232c3.973-0.227,3.536,3.19,4.026,5.652
		c0.676,3.394,1.217,6.815,2.677,10.312c0.76-2.85,1.012-5.981,2.397-8.485c2.094-3.786,4.335-8.018,7.682-10.456
		c4.513-3.287,8.881-0.378,9.149,5.266c0.197,4.155-0.21,8.388,0.44,12.461c1.089,6.822,4.901,8.393,10.581,4.514
		c3.206-2.189,6.015-4.96,9.112-7.561c3.279,12.45,0.747,17.925-9.981,22.134c-9.338,3.664-13.332,0.917-21.954-15.76
		c-1.463,10.295-2.797,19.675-4.129,29.055c-0.187,1.316-0.283,2.652-0.566,3.947c-0.645,2.953-1.196,6.092-4.98,6.628
		c-3.946,0.559-6.22-1.593-7.62-5.017c-0.179-0.438-0.56-0.793-0.987-1.376c-3.271,2.539-6.347,5.242-9.726,7.49
		c-10.271,6.833-14.017,6.048-20.629-3.944c-2.909,3.57-5.606,7.356-8.799,10.662c-3.102,3.211-7.051,5.333-11.696,3.796
		c-4.451-1.473-6.313-5.409-6.917-9.632c-0.82-5.74-1.277-11.558-1.439-17.356c-0.083-2.984-0.774-5.069-3.522-6.451
		c-4.082-2.053-8.08-4.274-12.423-6.059c5.366,9.469,7.75,19.118,5.26,29.723c-2.434,10.366-9.758,18.164-19.025,18.285
		c-4.786,0.063-9.602-2.209-15.175-3.621c-4.068,4.542-9.691,9.999-14.19,16.264c-1.712,2.384-1.108,6.623-1.098,10.015
		c0.024,7.951,1.016,15.959,0.354,23.838c-0.961,11.443-9.035,18.473-19.752,18.54c-8.22,0.051-13.976-4.542-13.218-12.724
		c0.718-7.753,3.19-15.53,6.056-22.839c2.273-5.796,6.479-10.808,9.476-16.358C134.541,203.03,134.697,200.393,135.265,198.142z
		 M189.933,164.254c-1.283-4.501-2.121-9.812-4.312-14.488c-2.425-5.176-7.298-5.004-10.528-0.275
		c-4.409,6.454-4.403,21.333,0.011,27.676c3.682,5.291,9.577,4.953,11.976-0.992C188.475,172.72,188.873,168.862,189.933,164.254z
		 M137.981,217.069c-5.5,7.596-7.478,15.246-8.782,23.06c-0.297,1.782,0.956,3.822,1.496,5.744c1.994-1.225,5.123-2.016,5.787-3.751
		C139.428,234.434,139.719,226.392,137.981,217.069z"/>
</g>
</svg>
