<?xml version="1.0" encoding="utf-8"?>
<!-- Generator: Adobe Illustrator 17.0.0, SVG Export Plug-In . SVG Version: 6.00 Build 0)  -->
<!DOCTYPE svg PUBLIC "-//W3C//DTD SVG 1.1//EN" "http://www.w3.org/Graphics/SVG/1.1/DTD/svg11.dtd">
<svg version="1.1" id="Layer_1" xmlns="http://www.w3.org/2000/svg" xmlns:xlink="http://www.w3.org/1999/xlink" x="0px" y="0px"
	 width="552.297px" height="182.006px" viewBox="0 0 552.297 182.006" enable-background="new 0 0 552.297 182.006"
	 xml:space="preserve">
<g id="vTPyaJ_2_">
	<g>
		<path fill="#FFFFFF" d="M450.054,18.414c1.985,11.412-0.174,15.589-9.369,18.831c-7.58,2.672-10.345,0.668-18.557-13.984
			c-1.299,7.686-2.473,14.6-3.633,21.516c-0.385,2.296-0.324,4.774-1.216,6.846c-0.88,2.043-2.359,4.571-4.199,5.292
			c-3.055,1.196-5.227-1.094-6.495-3.932c-0.261-0.585-0.466-1.196-0.866-2.23c-10.952,9.024-21.855,17.885-35.813,7.335
			c-7.313,3.766-14.242,7.62-21.431,10.905c-3.099,1.416-6.701,2.006-10.136,2.347c-5.088,0.505-9.619-0.837-12.236-5.809
			c-9.004,5.467-16.465,17.415-29.028,7.549c-5.607,2.811-11.367,6.489-17.651,8.641c-7.045,2.412-13.426-0.157-18.33-5.745
			c-14.307,6.744-18.882,6.31-24.768-3.063c-0.765,2.491-1.265,4.43-1.96,6.296c-0.753,2.021-1.328,4.261-2.629,5.889
			c-1.975,2.471-4.508,4.496-6.804,6.71c-1.481-2.588-3.443-5.02-4.338-7.797c-1.585-4.921-2.523-10.052-4.648-15.015
			c-0.92,4.444-1.661,8.935-2.826,13.313c-0.719,2.701-1.857,5.355-3.206,7.811c-4.014,7.307-8.276,7.655-13.388,1.491
			c-4.285,2.714-8.23,6.357-12.867,7.848c-5.27,1.695-9.367-2.135-12.42-5.816c-4.24,3.433-8.099,7.432-12.731,10.077
			c-5.256,3.002-10.594,1.502-14.597-2.692c-4.009,2.483-7.538,5.011-11.361,6.961c-6.487,3.308-9.502,2.248-13.092-3.97
			c-0.405-0.702-0.89-1.357-1.073-1.634c-3.33,3.515-6.216,7.508-9.984,10.32c-5.851,4.367-12.463,2.293-13.205-4.801
			c-1.251-11.964-0.866-24.105-0.988-36.173c-0.016-1.539,0.612-3.739,1.718-4.492c2.013-1.371,4.569-2.171,6.997-2.51
			c0.466-0.065,1.934,3.068,1.995,4.76c0.327,8.983,0.194,17.985,0.604,26.963c0.091,1.994,1.729,3.918,2.655,5.874
			c1.84-1.429,4.793-2.547,5.299-4.35c1.233-4.398,1.592-9.102,1.822-13.706c0.299-5.985,0.311-12,0.11-17.99
			c-0.148-4.4,2.595-5.21,5.943-5.682c3.608-0.509,5.209,1.083,5.297,4.675c0.056,2.307,0.672,4.601,0.715,6.907
			c0.109,5.83-0.127,11.671,0.102,17.494c0.127,3.239-0.859,7.7,3.7,8.532c3.694,0.674,8.142-5.488,8.374-9.754
			c0.777-14.263,4.326-27.018,18.029-32.438c1.359-12.486,2.314-24.32,4.109-36.024c0.598-3.903,3.094-7.626,5.181-11.161
			c2.167-3.67,5.905-6.4,9.96-4.825c2.923,1.135,5.91,4.359,7.071,7.349c3.241,8.346,3.674,17.247,2.071,26.06
			c-2.109,11.594-4.894,23.071-6.755,34.7c-0.654,4.085,0.209,8.542,1.048,12.693c0.598,2.957,2.814,3.711,5.776,2.08
			c5.912-3.256,7.055-6.059,5.915-12.752c-1.151-6.757-1.98-13.607-2.294-20.446c-0.087-1.901,1.714-4.66,3.442-5.675
			c2.057-1.209,5.084-1.544,7.455-1.073c0.996,0.198,1.834,3.403,1.975,5.298c0.591,7.958,0.891,15.938,2.206,24.125
			c0.886-4.358,1.72-8.727,2.674-13.07c0.958-4.362,1.673-8.832,3.199-12.996c0.908-2.477,2.754-5.086,4.916-6.533
			c5.354-3.583,8.853-1.467,8.875,4.927c0.027,7.921,0.006,15.841,0.006,23.762c0.482,0.062,0.964,0.123,1.446,0.185
			c1.912-8.257,3.938-16.489,5.692-24.779c1.033-4.879,2.522-8.923,8.481-9.317c4.849-0.321,7.089,1.48,6.274,6.298
			c-0.827,4.892-2.17,9.727-3.679,14.462c-1.013,3.178-1.381,6.169,1.917,7.706c2.312,1.077,5.32,1.669,7.769,1.196
			c3.188-0.616,4.199-3.21,4.239-6.796c0.057-5.24,0.687-10.634,2.127-15.661c2.293-8.002,8.722-12.763,15.884-12.898
			c9.179-0.173,14.839,6.98,12.51,15.909c-1.757,6.738-5.821,11.88-11.4,15.894c-1.462,1.052-3.005,1.99-4.736,3.128
			c2.176,3.862,5.794,4.217,8.571,2.578c5.357-3.163,10.881-6.618,14.924-11.198c2.177-2.466,1.539-7.503,1.969-11.402
			c0.491-4.455,0.684-8.942,1.141-13.402c0.409-3.99,4.636-7.455,8.662-7.53c3.254-0.06,3.41,2.056,3.299,4.332
			c-0.389,7.971-0.858,15.939-1.279,23.909c-0.07,1.329-0.388,2.764-0.013,3.971c0.738,2.377,1.882,4.628,2.858,6.931
			c2.224-1.275,5.254-2.01,6.532-3.918c5.605-8.365,10.8-17.011,15.939-25.676c2.278-3.841,3.833-8.117,6.183-11.906
			c1.238-1.996,3.233-4.059,5.345-4.823c2.016-0.73,5.415-0.639,6.743,0.626c1.184,1.128,1.325,5.04,0.259,6.533
			c-3.798,5.323-2.692,9.874,0.08,15.171c1.854,3.542,2.172,7.888,3.358,12.592c2.662-1.885,5.386-3.585,7.786-5.661
			c0.656-0.568,0.547-2.282,0.435-3.435c-0.772-7.928-0.342-15.877,3.813-22.69c2.243-3.677,6.228-6.74,10.096-8.862
			c4.775-2.62,9.849-1.186,13.744,2.564c4.069,3.917,3.932,8.903,2.438,13.95c-1.994,6.734-6.504,11.485-12.176,15.299
			c-1.077,0.725-2.178,1.415-3.574,2.319c2.839,3.927,6.599,3.994,9.712,2.01c5.403-3.444,10.405-7.559,15.319-11.695
			c0.997-0.84,1.158-3.014,1.201-4.587c0.173-6.308,0.084-12.622,0.24-18.93c0.04-1.629,0.144-3.647,1.08-4.762
			c1.1-1.31,3.096-2.339,4.791-2.488c0.901-0.079,2.559,1.817,2.879,3.075c0.844,3.327,1.145,6.792,2.548,10.398
			c0.745-2.335,1.063-4.939,2.33-6.943c2.129-3.368,4.355-7.058,7.479-9.31c3.332-2.402,6.478-0.272,6.82,3.948
			c0.281,3.476-0.095,7.007,0.212,10.479c0.667,7.544,4.406,9.33,10.554,5.058C445.511,22.706,447.481,20.653,450.054,18.414z
			 M160.962,63.583c-6.832,5.145-11.503,19.006-9.307,26.167c1.024,3.339,5.539,5.083,7.984,2.304
			c2.512-2.856,4.968-7.023,4.921-10.583C164.482,75.676,162.348,69.909,160.962,63.583z M171.673,60.647
			c0.689,0.047,1.378,0.095,2.066,0.142c2.392-12.07,5.162-24.131,3.676-36.603c-0.348-2.918-2.14-5.663-3.267-8.488
			c-1.189,2.914-3.378,5.824-3.391,8.744C170.703,36.509,171.309,48.579,171.673,60.647z M341.611,44.068
			c-0.489-0.008-0.977-0.016-1.466-0.024c-3.368,5.183-6.735,10.365-10.197,15.693c2.113,1.298,3.455,2.307,4.943,3.001
			c4.289,2.001,8.942-0.507,8.792-5.182C343.536,53.043,342.343,48.563,341.611,44.068z M373.633,39.045
			c0.702,0.268,1.405,0.537,2.107,0.805c4.829-1.811,8.473-5.098,9.746-10.178c0.493-1.967-0.893-4.405-1.424-6.628
			c-2.177,0.723-5.641,0.858-6.289,2.278C375.809,29.63,374.933,34.435,373.633,39.045z M266.599,60.242
			c6.31-2.083,9.92-5.125,11.254-9.687c0.676-2.312-0.903-5.283-1.463-7.956c-2.393,1.332-6,2.108-6.916,4.115
			C267.764,50.453,267.62,54.908,266.599,60.242z"/>
		<path fill="#FFFFFF" d="M213.572,144.422c3.396,0,7.448-1.257,9.619,0.23c7.173,4.916,6.755,12.64,5.255,20.432
			c7.2-4.217,7.713-6.062,7.217-13.423c-0.847-12.579-1.728-25.302,2.983-37.413c1.408-3.619,3.485-7.247,6.122-10.059
			c4.302-4.588,9.107-3.049,10.75,2.977c2.148,7.879,0.372,15.55-1.599,23.12c-1.714,6.582-3.96,13.023-5.832,19.566
			c-0.726,2.536-1.748,5.283-1.384,7.748c0.324,2.193,2.38,4.129,3.671,6.179c2.035-2.113,4.964-3.885,5.923-6.407
			c2.203-5.793,2.654-12.325,5.274-17.868c3.441-7.281,6.544-6.957,14.353-7.031c7.05-0.066,6.647,3.421,6.636,7.911
			c-0.007,2.999-0.126,6.013,0.138,8.991c0.223,2.51,0.926,4.976,1.512,7.948c5.324-2.342,7.767-5.107,7.077-10.358
			c-0.791-6.017-0.082-11.937,3.318-17.215c2.849-4.422,8.021-6.334,13.037-4.935c5.558,1.55,8,8.313,4.448,12.793
			c-0.818,1.032-2.547,2.005-3.719,1.864c-0.807-0.097-1.57-2.096-2.005-3.365c-0.556-1.622-0.763-3.364-1.121-5.054
			c-0.441-0.145-0.881-0.289-1.322-0.434c-1.167,1.612-3.11,3.12-3.342,4.857c-0.518,3.866-0.836,7.984-0.048,11.752
			c1.473,7.049,6.227,8.372,11.599,3.534c5.742-5.171,9.44-10.611,7.722-19.516c-2.226-11.545-2.603-23.542,0.766-35.106
			c0.974-3.344,2.952-6.777,5.41-9.225c4.782-4.761,10.953-3.031,11.623,3.586c0.742,7.33,0.287,14.935-0.793,22.251
			c-1.074,7.273-3.573,14.336-4.899,21.781c2.182-4.352,4.323-8.726,6.556-13.052c2.22-4.302,6.847-6.729,10.064-5.384
			c3.098,1.295,4.436,5.782,2.764,10.482c-1.498,4.211-3.633,8.207-4.959,12.462c-0.486,1.559,0.543,3.591,0.881,5.407
			c1.767-0.857,3.981-1.312,5.197-2.664c1.843-2.052,2.992-4.727,4.682-7.548c1.491,3.879,5.699,6.743,1.44,11.273
			c-5.027,5.347-13.428,8.775-17.193,5.756c-1.936-1.552-3.296-5.117-3.146-7.668c0.216-3.663,2.045-7.231,3.194-10.837
			c0.452-1.42,0.928-2.832,1.393-4.247c-0.499-0.278-0.998-0.555-1.497-0.833c-0.978,1.436-2.306,2.748-2.872,4.331
			c-2.123,5.934-3.762,12.05-6.082,17.899c-0.903,2.277-2.881,5.379-4.806,5.734c-3.833,0.706-4.231-3.276-5.135-6.071
			c-0.137-0.422-0.314-0.831-0.493-1.299c-14.484,14.269-16.541,14.984-26.182,9.262c-2.777,2.363-5.2,5.73-8.365,6.717
			c-2.649,0.826-6.165-1.13-9.296-1.855c-0.089-0.598-0.178-1.197-0.267-1.795c-1.491,1.698-2.815,3.588-4.507,5.053
			c-3.363,2.912-7.086,4.135-11.503,2.001c-1.027-0.496-2.869-0.3-3.881,0.32c-10.804,6.619-11.02,6.621-18.553-3.131
			c-5.437,3.948-10.958,7.798-16.3,11.885c-4.489,3.434-13.061,4.341-17.908,1.285c-1.192-0.752-2.39-2.469-2.493-3.826
			c-1.264-16.697-4.78-33.32-2.176-50.157c0.549-3.551,1.347-7.34,3.17-10.324c1.343-2.199,4.674-4.673,6.875-4.463
			c2.472,0.235,5.549,2.887,6.821,5.3c3.68,6.979,1.96,14.263-0.423,21.315C215.909,138.982,214.543,141.993,213.572,144.422z
			 M208.195,163.506c0.371,0.16,0.742,0.321,1.112,0.481c0.161,2.312,0.107,4.67,0.581,6.916c0.212,1.003,1.372,2.384,2.298,2.56
			c4.212,0.799,8.739-2.598,9.197-7.003c0.339-3.255,0.396-6.626-0.085-9.846c-0.25-1.675-1.677-4.079-3.04-4.455
			c-1.733-0.477-4.898,0.127-5.751,1.4C210.529,156.513,209.568,160.148,208.195,163.506z M274.473,136.592
			c-2.573,2.099-4.614,2.925-5.056,4.275c-1.61,4.914-3.047,9.954-3.743,15.057c-0.207,1.52,2.227,3.4,3.451,5.115
			c1.376-1.441,3.742-2.752,3.953-4.347C273.886,150.574,274.002,144.364,274.473,136.592z M327.366,128.23
			c1.472-11.689,2.944-23.379,4.495-35.696C324.975,95.359,323.281,111.107,327.366,128.23z M243.374,141.941
			c3.469-10.077,6.831-20.168,4.025-31.07C241.571,120.638,242.417,131.282,243.374,141.941z M206.504,145.233
			c6.892-15.346,7.729-26.06,2.31-29.285C204.985,125.588,206.485,135.504,206.504,145.233z"/>
		<path fill="#FFFFFF" d="M520.959,94.468c1.163-4.082,2.358-8.155,3.477-12.248c0.879-3.215,2.91-6.043,6.135-5.047
			c1.804,0.557,3.39,4.002,3.819,6.372c0.853,4.718,0.586,9.631,1.305,14.384c0.289,1.911,1.959,3.612,3,5.409
			c1.495-0.925,3.171-1.652,4.446-2.818c2.56-2.341,4.9-4.921,7.38-7.453c3.563,5.535,1.414,9.139-3.048,12.184
			c-2.471,1.687-4.696,3.756-7.245,5.303c-4.16,2.526-6.991,1.724-8.584-2.951c-1.64-4.812-2.45-9.908-3.829-15.754
			c-1.676,6.273-2.923,11.921-4.761,17.369c-0.807,2.391-2.821,4.375-4.287,6.544c-2.023-1.4-4.045-2.799-6.348-4.393
			c-2.343,0.657-5.516,2.373-8.554,2.159c-2.891-0.203-5.641-2.422-8.546-3.799c-0.846,2.147-1.849,5.486-3.475,8.487
			c-0.847,1.562-2.794,2.528-4.245,3.764c-0.991-1.422-2.361-2.716-2.897-4.293c-1.309-3.851-2.231-7.832-4.277-11.663
			c-0.414,2.562-0.674,5.162-1.288,7.675c-0.548,2.243-1.076,4.677-2.358,6.504c-1.51,2.152-3.822,3.741-5.786,5.574
			c-1.688-1.889-3.984-3.519-4.928-5.726c-1.613-3.771-3.036-7.856-3.339-11.898c-0.404-5.399-4.101-5.989-6.791-7.147
			c0.717,5.777,2.279,11.568,1.91,17.232c-0.395,6.054-3.847,11.109-10.408,12.548c-6.621,1.452-10.633-2.383-13.572-7.651
			c-10.026,1.718-10.228,1.607-16.481-9.645c-1.007,6.593-1.9,12.366-2.766,18.143c-0.433,2.885-0.102,7.051-4.012,6.694
			c-1.873-0.171-3.422-4.11-5.062-6.382c-0.268-0.371-0.249-0.949-0.483-1.942c-2.103,2.689-3.884,5.192-5.897,7.492
			c-4.198,4.796-9.577,6.965-15.682,4.932c-5.946-1.98-9.136-6.96-9.101-13.04c0.03-5.18,0.766-10.589,2.45-15.461
			c1.8-5.211,6.934-7.573,11.989-7.073c6.43,0.636,9.889,6.863,6.629,12.396c-0.739,1.254-2.797,1.73-4.247,2.565
			c-0.637-1.185-1.438-2.315-1.866-3.571c-0.465-1.364-0.582-2.847-1.027-5.21c-1.722,1.174-3.125,1.703-3.874,2.716
			c-2.924,3.952-2.389,14.426,0.834,18.075c2.36,2.672,5.409,3.001,8.02,0.874c6.108-4.975,11.797-10.344,11.207-19.32
			c-0.174-2.654-0.122-5.337,0.033-7.995c0.175-3,1.268-5.231,5.585-4.403c0.619,2.864,1.294,5.991,2.175,10.069
			c1.566-3.839,2.31-7.069,4.095-9.552c1.232-1.713,3.902-2.392,5.929-3.533c0.841,1.812,1.964,3.553,2.442,5.456
			c0.474,1.885,0.239,3.939,0.42,5.909c0.315,3.428,1.896,5.282,6.011,4.15c0.491-7.012,1.38-14.223,8.425-18.288
			c6.546-3.777,13.36-3.117,20.284-0.197c0.498-0.81,1.09-1.436,1.299-2.172c0.934-3.295,2.93-5.372,6.457-4.903
			c4.046,0.537,2.524,4.016,2.773,6.369c0.536,5.057,0.817,10.14,2.091,15.322c0.988-5.302,1.757-10.659,3.057-15.883
			c0.654-2.63,1.867-5.372,3.611-7.385c1.018-1.175,3.669-1.517,5.414-1.221c0.81,0.138,1.664,2.672,1.717,4.149
			c0.2,5.584,0.081,11.179,0.081,16.77c0.584,0.02,1.167,0.039,1.751,0.059c1.437-6.593,2.603-13.264,4.477-19.729
			c0.552-1.903,2.851-3.969,4.805-4.648c3.451-1.2,5.541,0.68,4.904,4.444c-0.608,3.594-1.95,7.084-2.33,10.687
			c-0.188,1.784,0.53,4.414,1.81,5.396c1.328,1.02,4.32,1.317,5.699,0.477c1.916-1.167,4.029-3.581,4.244-5.65
			c0.477-4.583-0.524-9.309-0.194-13.924c0.13-1.819,2.202-3.5,3.389-5.243c1.407,1.498,3.583,2.788,4.054,4.538
			c0.861,3.2,0.714,6.671,0.988,10.029C520.313,94.473,520.636,94.47,520.959,94.468z M451.886,113.347
			c-0.589-2.343-0.934-5.353-2.155-7.951c-0.706-1.502-2.759-3.098-4.328-3.233c-1.218-0.105-3.09,1.734-3.862,3.15
			c-2.614,4.79-2.604,9.962-0.255,14.762c0.823,1.682,3.289,3.395,5.09,3.491c1.35,0.072,3.244-2.2,4.146-3.84
			C451.419,118.095,451.381,115.949,451.886,113.347z"/>
		<path fill="#FFFFFF" d="M7.503,77.65C2.241,71.038,2.44,61.929,6.818,54.831c3.963-6.426,10.072-10.202,16.848-12.659
			c16.066-5.825,32.453-6.417,48.815-1.284c6.438,2.02,12.748,4.966,13.89,12.714c1.281,8.692-2.747,15.172-9.872,19.77
			c-3.036,1.96-6.413,3.392-9.984,5.245c8.248,1.289,14.177,5.408,16.935,13.373c4.56,13.167-2.048,27.306-15.824,33.037
			c-12.427,5.17-25.424,4.243-38.37,2.575c-1.008-0.13-2.492-1.471-2.666-2.444c-3.37-18.811-6.832-37.663-1.998-56.734
			c0.704-2.778,1.959-5.827,3.922-7.783c3.221-3.211,7.106-3.118,10.789,0.546c-7.075,17.389-2.734,34.943-0.445,52.5
			c0.484,3.711,2.337,5.423,6.174,5.538c7.459,0.225,14.571-0.647,20.9-5.008c6.258-4.311,9.105-11.482,7.297-18.753
			c-1.276-5.13-4.864-7.799-9.891-8.581c-3.281-0.511-6.632-0.576-9.913-1.092c-2.091-0.329-4.663-0.545-6.015-1.851
			c-1.559-1.506-2.52-4.121-2.68-6.33c-0.058-0.801,2.846-2.212,4.577-2.667c4.14-1.089,8.615-1.211,12.52-2.795
			c3.409-1.383,6.738-3.771,9.199-6.523c5.753-6.434,3.224-14.855-5.228-16.305c-6.592-1.131-13.647-1.322-20.232-0.273
			c-7.594,1.209-15.021,3.908-22.287,6.592c-4.997,1.846-8.223,5.785-10.01,11.094C12.054,70.343,9.71,73.57,7.503,77.65z"/>
		<path fill="#FFFFFF" d="M296.469,12.592c0.173-5.072,4.983-9.01,10.645-8.713c4.231,0.222,7.308,3.587,7.225,7.902
			c-0.096,5.021-4.908,9.101-10.591,8.981C299.272,20.667,296.307,17.339,296.469,12.592z"/>
	</g>
</g>
<g id="vTPyaJ_1_">
	<g>
		<path fill="#3B1610" d="M446.51,14.87c1.985,11.412-0.174,15.589-9.369,18.831c-7.58,2.672-10.345,0.668-18.557-13.984
			c-1.299,7.686-2.473,14.6-3.633,21.516c-0.385,2.296-0.324,4.774-1.216,6.846c-0.88,2.043-2.359,4.571-4.199,5.292
			c-3.055,1.196-5.227-1.094-6.495-3.932c-0.261-0.585-0.466-1.196-0.866-2.23c-10.952,9.024-21.855,17.885-35.813,7.335
			c-7.313,3.766-14.242,7.62-21.431,10.905c-3.099,1.416-6.701,2.006-10.136,2.347c-5.088,0.505-9.619-0.837-12.236-5.809
			c-9.004,5.467-16.465,17.415-29.028,7.549c-5.607,2.811-11.367,6.489-17.651,8.641c-7.045,2.412-13.426-0.157-18.33-5.745
			c-14.307,6.744-18.882,6.31-24.768-3.063c-0.765,2.491-1.265,4.43-1.96,6.296c-0.753,2.021-1.328,4.261-2.629,5.889
			c-1.975,2.471-4.508,4.496-6.804,6.71c-1.481-2.588-3.443-5.02-4.338-7.797c-1.585-4.921-2.523-10.052-4.648-15.015
			c-0.92,4.444-1.661,8.935-2.826,13.313c-0.719,2.701-1.857,5.355-3.206,7.811c-4.014,7.307-8.276,7.655-13.388,1.491
			c-4.285,2.714-8.23,6.357-12.867,7.848c-5.27,1.695-9.367-2.135-12.42-5.816c-4.24,3.433-8.099,7.432-12.731,10.077
			c-5.256,3.002-10.594,1.502-14.597-2.692c-4.009,2.483-7.538,5.011-11.361,6.961c-6.487,3.308-9.502,2.248-13.092-3.97
			c-0.405-0.702-0.89-1.357-1.073-1.634c-3.33,3.515-6.216,7.508-9.984,10.32c-5.851,4.367-12.463,2.293-13.205-4.801
			c-1.251-11.964-0.866-24.105-0.988-36.173c-0.016-1.539,0.612-3.739,1.718-4.492c2.013-1.371,4.569-2.171,6.997-2.51
			c0.466-0.065,1.934,3.068,1.995,4.76c0.327,8.983,0.194,17.985,0.604,26.963c0.091,1.994,1.729,3.918,2.655,5.874
			c1.84-1.429,4.793-2.547,5.299-4.35c1.233-4.398,1.592-9.102,1.822-13.706c0.299-5.985,0.311-12,0.11-17.99
			c-0.148-4.4,2.595-5.21,5.943-5.682c3.608-0.509,5.209,1.083,5.297,4.675c0.056,2.307,0.672,4.601,0.715,6.907
			c0.109,5.83-0.127,11.671,0.102,17.494c0.127,3.239-0.859,7.7,3.7,8.532c3.694,0.674,8.142-5.488,8.374-9.754
			c0.777-14.263,4.326-27.018,18.029-32.438c1.359-12.486,2.314-24.32,4.109-36.024c0.598-3.903,3.094-7.626,5.181-11.161
			c2.167-3.67,5.905-6.4,9.96-4.825c2.923,1.135,5.91,4.359,7.071,7.349c3.241,8.346,3.674,17.247,2.071,26.06
			c-2.109,11.594-4.894,23.071-6.755,34.7c-0.654,4.085,0.209,8.542,1.048,12.693c0.598,2.957,2.814,3.711,5.776,2.08
			c5.912-3.256,7.055-6.059,5.915-12.752c-1.151-6.757-1.98-13.607-2.294-20.446c-0.087-1.901,1.714-4.66,3.442-5.675
			c2.057-1.209,5.084-1.544,7.455-1.073c0.996,0.198,1.834,3.403,1.975,5.298c0.591,7.958,0.891,15.938,2.206,24.125
			c0.886-4.358,1.72-8.727,2.674-13.07c0.958-4.362,1.673-8.832,3.199-12.996c0.908-2.477,2.754-5.086,4.916-6.533
			c5.354-3.583,8.853-1.467,8.875,4.927c0.027,7.921,0.006,15.841,0.006,23.762c0.482,0.062,0.964,0.123,1.446,0.185
			c1.912-8.257,3.938-16.489,5.692-24.779c1.033-4.879,2.522-8.923,8.481-9.317c4.849-0.321,7.089,1.48,6.274,6.298
			c-0.827,4.892-2.17,9.727-3.679,14.462c-1.013,3.178-1.381,6.169,1.917,7.706c2.312,1.077,5.32,1.669,7.769,1.196
			c3.188-0.616,4.199-3.21,4.239-6.796c0.057-5.24,0.687-10.634,2.127-15.661c2.293-8.002,8.722-12.763,15.884-12.898
			c9.179-0.173,14.839,6.98,12.51,15.909c-1.757,6.738-5.821,11.88-11.4,15.894c-1.462,1.052-3.005,1.99-4.736,3.128
			c2.176,3.862,5.794,4.217,8.571,2.578c5.357-3.163,10.881-6.618,14.924-11.198c2.177-2.466,1.539-7.503,1.969-11.402
			c0.491-4.455,0.684-8.942,1.141-13.402c0.409-3.99,4.636-7.455,8.662-7.53c3.254-0.06,3.41,2.056,3.299,4.332
			c-0.389,7.971-0.858,15.939-1.279,23.909c-0.07,1.329-0.388,2.764-0.013,3.971c0.738,2.377,1.882,4.628,2.858,6.931
			c2.224-1.275,5.254-2.01,6.532-3.918c5.605-8.365,10.8-17.011,15.939-25.676c2.278-3.841,3.833-8.117,6.183-11.906
			c1.238-1.996,3.233-4.059,5.345-4.823c2.016-0.73,5.415-0.639,6.743,0.626c1.184,1.128,1.325,5.04,0.259,6.533
			c-3.798,5.323-2.692,9.874,0.08,15.171c1.854,3.542,2.172,7.888,3.358,12.592c2.662-1.885,5.386-3.585,7.786-5.661
			c0.656-0.568,0.547-2.282,0.435-3.435c-0.772-7.928-0.342-15.877,3.813-22.69c2.243-3.677,6.228-6.74,10.096-8.862
			c4.775-2.62,9.849-1.186,13.744,2.564c4.069,3.917,3.932,8.903,2.438,13.95c-1.994,6.734-6.504,11.485-12.176,15.299
			c-1.077,0.725-2.178,1.415-3.574,2.319c2.839,3.927,6.599,3.994,9.712,2.01c5.403-3.444,10.405-7.559,15.319-11.695
			c0.997-0.84,1.158-3.014,1.201-4.587c0.173-6.308,0.084-12.622,0.24-18.93c0.04-1.629,0.144-3.647,1.08-4.762
			c1.1-1.31,3.096-2.339,4.791-2.488c0.901-0.079,2.559,1.817,2.879,3.075c0.844,3.327,1.145,6.792,2.548,10.398
			c0.745-2.335,1.063-4.939,2.33-6.943c2.129-3.368,4.355-7.058,7.479-9.31c3.332-2.402,6.478-0.272,6.82,3.948
			c0.281,3.476-0.095,7.007,0.212,10.479c0.667,7.544,4.406,9.33,10.554,5.058C441.968,19.163,443.938,17.11,446.51,14.87z
			 M157.419,60.039c-6.832,5.145-11.503,19.006-9.307,26.167c1.024,3.339,5.539,5.083,7.984,2.304
			c2.512-2.856,4.968-7.023,4.921-10.583C160.939,72.133,158.805,66.366,157.419,60.039z M168.13,57.104
			c0.689,0.047,1.378,0.095,2.066,0.142c2.392-12.07,5.162-24.131,3.676-36.603c-0.348-2.918-2.14-5.663-3.267-8.488
			c-1.189,2.914-3.378,5.824-3.391,8.744C167.16,32.966,167.766,45.036,168.13,57.104z M338.067,40.525
			c-0.489-0.008-0.977-0.016-1.466-0.024c-3.368,5.183-6.735,10.365-10.197,15.693c2.113,1.298,3.455,2.307,4.943,3.001
			c4.289,2.001,8.942-0.507,8.792-5.182C339.993,49.5,338.8,45.02,338.067,40.525z M370.09,35.502
			c0.702,0.268,1.405,0.537,2.107,0.805c4.829-1.811,8.473-5.098,9.746-10.178c0.493-1.967-0.893-4.405-1.424-6.628
			c-2.177,0.723-5.641,0.858-6.289,2.278C372.265,26.087,371.39,30.892,370.09,35.502z M263.055,56.699
			c6.31-2.083,9.92-5.125,11.254-9.687c0.676-2.312-0.903-5.283-1.463-7.956c-2.393,1.332-6,2.108-6.916,4.115
			C264.221,46.91,264.076,51.365,263.055,56.699z"/>
		<path fill="#3B1610" d="M210.029,140.878c3.396,0,7.448-1.257,9.619,0.23c7.173,4.916,6.755,12.64,5.255,20.432
			c7.2-4.217,7.713-6.062,7.217-13.423c-0.847-12.579-1.728-25.302,2.983-37.413c1.408-3.619,3.485-7.247,6.122-10.059
			c4.302-4.588,9.107-3.049,10.75,2.977c2.148,7.879,0.372,15.55-1.599,23.12c-1.714,6.582-3.96,13.023-5.832,19.566
			c-0.726,2.536-1.748,5.283-1.384,7.748c0.324,2.193,2.38,4.129,3.671,6.179c2.035-2.113,4.964-3.885,5.923-6.407
			c2.203-5.793,2.654-12.325,5.274-17.868c3.441-7.281,6.544-6.957,14.353-7.031c7.05-0.066,6.647,3.421,6.636,7.911
			c-0.007,2.999-0.126,6.013,0.138,8.991c0.223,2.51,0.926,4.976,1.512,7.948c5.324-2.342,7.767-5.107,7.077-10.358
			c-0.791-6.017-0.082-11.937,3.318-17.215c2.849-4.422,8.021-6.334,13.037-4.935c5.558,1.55,8,8.313,4.448,12.793
			c-0.818,1.032-2.547,2.005-3.719,1.864c-0.807-0.097-1.57-2.096-2.005-3.365c-0.556-1.622-0.763-3.364-1.121-5.054
			c-0.441-0.145-0.881-0.289-1.322-0.434c-1.167,1.612-3.11,3.12-3.342,4.857c-0.518,3.866-0.836,7.984-0.048,11.752
			c1.473,7.049,6.227,8.372,11.599,3.534c5.742-5.171,9.44-10.611,7.722-19.516c-2.226-11.545-2.603-23.542,0.766-35.106
			c0.974-3.344,2.952-6.777,5.41-9.225c4.782-4.761,10.953-3.031,11.623,3.586c0.742,7.33,0.287,14.935-0.793,22.251
			c-1.074,7.273-3.573,14.336-4.899,21.781c2.182-4.352,4.323-8.726,6.556-13.052c2.22-4.302,6.847-6.729,10.064-5.384
			c3.098,1.295,4.436,5.782,2.764,10.482c-1.498,4.211-3.633,8.207-4.959,12.462c-0.486,1.559,0.543,3.591,0.881,5.407
			c1.767-0.857,3.981-1.312,5.197-2.664c1.843-2.052,2.992-4.727,4.682-7.548c1.491,3.879,5.699,6.743,1.44,11.273
			c-5.027,5.347-13.428,8.775-17.193,5.756c-1.936-1.552-3.296-5.117-3.146-7.668c0.216-3.663,2.045-7.231,3.194-10.837
			c0.452-1.42,0.928-2.832,1.393-4.247c-0.499-0.278-0.998-0.555-1.497-0.833c-0.978,1.436-2.306,2.748-2.872,4.331
			c-2.123,5.934-3.762,12.05-6.082,17.899c-0.903,2.277-2.881,5.379-4.806,5.734c-3.833,0.706-4.231-3.276-5.135-6.071
			c-0.137-0.422-0.314-0.831-0.493-1.299c-14.484,14.269-16.541,14.984-26.182,9.262c-2.777,2.363-5.2,5.73-8.365,6.717
			c-2.649,0.826-6.165-1.13-9.296-1.855c-0.089-0.598-0.178-1.197-0.267-1.795c-1.491,1.698-2.815,3.588-4.507,5.053
			c-3.363,2.912-7.086,4.135-11.503,2.001c-1.027-0.496-2.869-0.3-3.881,0.32c-10.804,6.619-11.02,6.621-18.553-3.131
			c-5.437,3.948-10.958,7.798-16.3,11.885c-4.489,3.434-13.061,4.341-17.908,1.285c-1.192-0.752-2.39-2.469-2.493-3.826
			c-1.264-16.697-4.78-33.32-2.176-50.157c0.549-3.551,1.347-7.34,3.17-10.324c1.343-2.199,4.674-4.673,6.875-4.463
			c2.472,0.235,5.549,2.887,6.821,5.3c3.68,6.979,1.96,14.263-0.423,21.315C212.365,135.439,211,138.45,210.029,140.878z
			 M204.652,159.963c0.371,0.16,0.742,0.321,1.112,0.481c0.161,2.312,0.107,4.67,0.581,6.916c0.212,1.003,1.372,2.384,2.298,2.56
			c4.212,0.799,8.739-2.598,9.197-7.003c0.339-3.255,0.396-6.626-0.085-9.846c-0.25-1.675-1.677-4.079-3.04-4.455
			c-1.733-0.477-4.898,0.127-5.751,1.4C206.986,152.969,206.025,156.604,204.652,159.963z M270.93,133.049
			c-2.573,2.099-4.614,2.925-5.056,4.275c-1.61,4.914-3.047,9.954-3.743,15.057c-0.207,1.52,2.227,3.4,3.451,5.115
			c1.376-1.441,3.742-2.752,3.953-4.347C270.342,147.031,270.459,140.821,270.93,133.049z M323.822,124.687
			c1.472-11.689,2.944-23.379,4.495-35.696C321.431,91.816,319.737,107.564,323.822,124.687z M239.831,138.398
			c3.469-10.077,6.831-20.168,4.025-31.07C238.028,117.094,238.874,127.739,239.831,138.398z M202.961,141.69
			c6.892-15.346,7.729-26.06,2.31-29.285C201.442,122.045,202.942,131.961,202.961,141.69z"/>
		<path fill="#3B1610" d="M517.416,90.924c1.163-4.082,2.358-8.155,3.477-12.248c0.879-3.215,2.91-6.043,6.135-5.047
			c1.804,0.557,3.39,4.002,3.819,6.372c0.853,4.718,0.586,9.631,1.305,14.384c0.289,1.911,1.959,3.612,3,5.409
			c1.495-0.925,3.171-1.652,4.446-2.818c2.56-2.341,4.9-4.921,7.38-7.453c3.563,5.535,1.414,9.139-3.048,12.184
			c-2.471,1.687-4.696,3.756-7.245,5.303c-4.16,2.526-6.991,1.724-8.584-2.951c-1.64-4.812-2.45-9.908-3.829-15.754
			c-1.676,6.273-2.923,11.921-4.761,17.369c-0.807,2.391-2.821,4.375-4.287,6.544c-2.023-1.4-4.045-2.799-6.348-4.393
			c-2.343,0.657-5.516,2.373-8.554,2.159c-2.891-0.203-5.641-2.422-8.546-3.799c-0.846,2.147-1.849,5.486-3.475,8.487
			c-0.847,1.562-2.794,2.528-4.245,3.764c-0.991-1.422-2.361-2.716-2.897-4.293c-1.309-3.851-2.231-7.832-4.277-11.663
			c-0.414,2.562-0.674,5.162-1.288,7.675c-0.548,2.243-1.076,4.677-2.358,6.504c-1.51,2.152-3.822,3.741-5.786,5.574
			c-1.688-1.889-3.984-3.519-4.928-5.726c-1.613-3.771-3.036-7.856-3.339-11.898c-0.404-5.399-4.101-5.989-6.791-7.147
			c0.717,5.777,2.279,11.568,1.91,17.232c-0.395,6.054-3.847,11.109-10.408,12.548c-6.621,1.452-10.633-2.383-13.572-7.651
			c-10.026,1.718-10.228,1.607-16.481-9.645c-1.007,6.593-1.9,12.366-2.766,18.143c-0.433,2.885-0.102,7.051-4.012,6.694
			c-1.873-0.171-3.422-4.11-5.062-6.382c-0.268-0.371-0.249-0.949-0.483-1.942c-2.103,2.689-3.884,5.192-5.897,7.492
			c-4.198,4.796-9.577,6.965-15.682,4.932c-5.946-1.98-9.136-6.96-9.101-13.04c0.03-5.18,0.766-10.589,2.45-15.461
			c1.8-5.211,6.934-7.573,11.989-7.073c6.43,0.636,9.889,6.863,6.629,12.396c-0.739,1.254-2.797,1.73-4.247,2.565
			c-0.637-1.185-1.438-2.315-1.866-3.571c-0.465-1.364-0.582-2.847-1.027-5.21c-1.722,1.174-3.125,1.703-3.874,2.716
			c-2.924,3.952-2.389,14.426,0.834,18.075c2.36,2.672,5.409,3.001,8.02,0.874c6.108-4.975,11.797-10.344,11.207-19.32
			c-0.174-2.654-0.122-5.337,0.033-7.995c0.175-3,1.268-5.231,5.585-4.403c0.619,2.864,1.294,5.991,2.175,10.069
			c1.566-3.839,2.31-7.069,4.095-9.552c1.232-1.713,3.902-2.392,5.929-3.533c0.841,1.812,1.964,3.553,2.442,5.456
			c0.474,1.885,0.239,3.939,0.42,5.909c0.315,3.428,1.896,5.282,6.011,4.15c0.491-7.012,1.38-14.223,8.425-18.288
			c6.546-3.777,13.36-3.117,20.284-0.197c0.498-0.81,1.09-1.436,1.299-2.172c0.934-3.295,2.93-5.372,6.457-4.903
			c4.046,0.537,2.524,4.016,2.773,6.369c0.536,5.057,0.817,10.14,2.091,15.322c0.988-5.302,1.757-10.659,3.057-15.883
			c0.654-2.63,1.867-5.372,3.611-7.385c1.018-1.175,3.669-1.517,5.414-1.221c0.81,0.138,1.664,2.672,1.717,4.149
			c0.2,5.584,0.081,11.179,0.081,16.77c0.584,0.02,1.167,0.039,1.751,0.059c1.437-6.593,2.603-13.264,4.477-19.729
			c0.552-1.903,2.851-3.969,4.805-4.648c3.451-1.2,5.541,0.68,4.904,4.444c-0.608,3.594-1.95,7.084-2.33,10.687
			c-0.188,1.784,0.53,4.414,1.81,5.396c1.328,1.02,4.32,1.317,5.699,0.477c1.916-1.167,4.029-3.581,4.244-5.65
			c0.477-4.583-0.524-9.309-0.194-13.924c0.13-1.819,2.202-3.5,3.389-5.243c1.407,1.498,3.583,2.788,4.054,4.538
			c0.861,3.2,0.714,6.671,0.988,10.029C516.77,90.93,517.093,90.927,517.416,90.924z M448.342,109.804
			c-0.589-2.343-0.934-5.353-2.155-7.951c-0.706-1.502-2.759-3.098-4.328-3.233c-1.218-0.105-3.09,1.734-3.862,3.15
			c-2.614,4.79-2.604,9.962-0.255,14.762c0.823,1.682,3.289,3.395,5.09,3.491c1.35,0.072,3.244-2.2,4.146-3.84
			C447.876,114.551,447.838,112.406,448.342,109.804z"/>
		<path fill="#3B1610" d="M3.959,74.107c-5.262-6.613-5.063-15.721-0.685-22.819c3.963-6.426,10.072-10.202,16.848-12.659
			c16.066-5.825,32.453-6.417,48.815-1.284c6.438,2.02,12.748,4.966,13.89,12.714c1.281,8.692-2.747,15.172-9.872,19.77
			c-3.036,1.96-6.413,3.392-9.984,5.245c8.248,1.289,14.177,5.408,16.935,13.373c4.56,13.167-2.048,27.306-15.824,33.037
			c-12.427,5.17-25.424,4.243-38.37,2.575c-1.008-0.13-2.492-1.471-2.666-2.444c-3.37-18.811-6.832-37.663-1.998-56.734
			c0.704-2.778,1.959-5.827,3.922-7.783c3.221-3.211,7.106-3.118,10.789,0.546c-7.075,17.389-2.734,34.943-0.445,52.5
			c0.484,3.711,2.337,5.423,6.174,5.538c7.459,0.225,14.571-0.647,20.9-5.008c6.258-4.311,9.105-11.482,7.297-18.753
			c-1.276-5.13-4.864-7.799-9.891-8.581c-3.281-0.511-6.632-0.576-9.913-1.092c-2.091-0.329-4.663-0.545-6.015-1.851
			c-1.559-1.506-2.52-4.121-2.68-6.33c-0.058-0.801,2.846-2.212,4.577-2.667c4.14-1.089,8.615-1.211,12.52-2.795
			c3.409-1.383,6.738-3.771,9.199-6.523c5.753-6.434,3.224-14.855-5.228-16.305c-6.592-1.131-13.647-1.322-20.232-0.273
			c-7.594,1.209-15.021,3.908-22.287,6.592c-4.997,1.846-8.223,5.785-10.01,11.094C8.51,66.799,6.167,70.027,3.959,74.107z"/>
		<path fill="#3B1610" d="M292.926,9.048c0.173-5.072,4.983-9.01,10.645-8.713c4.231,0.222,7.308,3.587,7.225,7.902
			c-0.096,5.021-4.908,9.101-10.591,8.981C295.729,17.124,292.764,13.796,292.926,9.048z"/>
	</g>
</g>
</svg>
